<mxfile host="drawio-plugin" modified="2021-06-06T18:16:31.087Z" agent="5.0 (Macintosh; Intel Mac OS X 11_3_0) AppleWebKit/537.36 (KHTML, like Gecko) Chrome/87.0.4280.141 Safari/537.36" etag="iRBNhIjbAp5rh00r7Lm5" version="14.6.6" type="embed"><diagram id="ip1Sou4PZSPixX4H6rVA" name="Page-1"><mxGraphModel dx="462" dy="429" grid="1" gridSize="10" guides="1" tooltips="1" connect="1" arrows="1" fold="1" page="1" pageScale="1" pageWidth="827" pageHeight="1169" math="0" shadow="0"><root><mxCell id="0"/><mxCell id="1" parent="0"/><mxCell id="5g94-GaEwYD7WjOhBr3F-1" value="" style="rounded=0;whiteSpace=wrap;html=1;" parent="1" vertex="1"><mxGeometry x="280" y="40" width="440" height="1030" as="geometry"/></mxCell><mxCell id="5g94-GaEwYD7WjOhBr3F-2" value="Admin" style="shape=umlActor;verticalLabelPosition=bottom;verticalAlign=top;html=1;outlineConnect=0;" parent="1" vertex="1"><mxGeometry x="90" y="420" width="60" height="120" as="geometry"/></mxCell><mxCell id="5g94-GaEwYD7WjOhBr3F-3" value="Login" style="ellipse;whiteSpace=wrap;html=1;" parent="1" vertex="1"><mxGeometry x="310" y="60" width="120" height="60" as="geometry"/></mxCell><mxCell id="5g94-GaEwYD7WjOhBr3F-4" value="Logout" style="ellipse;whiteSpace=wrap;html=1;" parent="1" vertex="1"><mxGeometry x="310" y="150" width="120" height="60" as="geometry"/></mxCell><mxCell id="5g94-GaEwYD7WjOhBr3F-5" value="Reviewing &lt;br&gt;agency&lt;br&gt;reports" style="ellipse;whiteSpace=wrap;html=1;" parent="1" vertex="1"><mxGeometry x="560" y="330" width="120" height="60" as="geometry"/></mxCell><mxCell id="5g94-GaEwYD7WjOhBr3F-6" value="Read events" style="ellipse;whiteSpace=wrap;html=1;" parent="1" vertex="1"><mxGeometry x="580" y="860" width="120" height="60" as="geometry"/></mxCell><mxCell id="5g94-GaEwYD7WjOhBr3F-7" value="Add event" style="ellipse;whiteSpace=wrap;html=1;" parent="1" vertex="1"><mxGeometry x="570" y="690" width="120" height="60" as="geometry"/></mxCell><mxCell id="5g94-GaEwYD7WjOhBr3F-8" value="Edit event" style="ellipse;whiteSpace=wrap;html=1;" parent="1" vertex="1"><mxGeometry x="580" y="780" width="120" height="60" as="geometry"/></mxCell><mxCell id="5g94-GaEwYD7WjOhBr3F-9" value="Delete event" style="ellipse;whiteSpace=wrap;html=1;" parent="1" vertex="1"><mxGeometry x="580" y="950" width="120" height="60" as="geometry"/></mxCell><mxCell id="5g94-GaEwYD7WjOhBr3F-10" value="" style="endArrow=none;html=1;entryX=0;entryY=0.5;entryDx=0;entryDy=0;exitX=0.75;exitY=0.1;exitDx=0;exitDy=0;exitPerimeter=0;" parent="1" source="5g94-GaEwYD7WjOhBr3F-2" target="5g94-GaEwYD7WjOhBr3F-3" edge="1"><mxGeometry width="50" height="50" relative="1" as="geometry"><mxPoint x="200" y="350" as="sourcePoint"/><mxPoint x="250" y="540" as="targetPoint"/></mxGeometry></mxCell><mxCell id="5g94-GaEwYD7WjOhBr3F-11" value="" style="endArrow=none;html=1;exitX=0.75;exitY=0.1;exitDx=0;exitDy=0;exitPerimeter=0;entryX=-0.001;entryY=0.519;entryDx=0;entryDy=0;entryPerimeter=0;" parent="1" source="5g94-GaEwYD7WjOhBr3F-2" target="5g94-GaEwYD7WjOhBr3F-4" edge="1"><mxGeometry width="50" height="50" relative="1" as="geometry"><mxPoint x="200" y="350" as="sourcePoint"/><mxPoint x="315" y="180" as="targetPoint"/></mxGeometry></mxCell><mxCell id="5g94-GaEwYD7WjOhBr3F-12" value="" style="endArrow=none;html=1;entryX=0;entryY=0.5;entryDx=0;entryDy=0;" parent="1" target="5g94-GaEwYD7WjOhBr3F-5" edge="1"><mxGeometry width="50" height="50" relative="1" as="geometry"><mxPoint x="140" y="430" as="sourcePoint"/><mxPoint x="250" y="510" as="targetPoint"/></mxGeometry></mxCell><mxCell id="5g94-GaEwYD7WjOhBr3F-13" value="" style="endArrow=none;html=1;entryX=0;entryY=1;entryDx=0;entryDy=0;exitX=1;exitY=1;exitDx=0;exitDy=0;exitPerimeter=0;" parent="1" source="5g94-GaEwYD7WjOhBr3F-2" target="5g94-GaEwYD7WjOhBr3F-7" edge="1"><mxGeometry width="50" height="50" relative="1" as="geometry"><mxPoint x="200" y="350" as="sourcePoint"/><mxPoint x="460" y="420" as="targetPoint"/></mxGeometry></mxCell><mxCell id="5g94-GaEwYD7WjOhBr3F-14" value="" style="endArrow=none;html=1;exitX=1;exitY=1;exitDx=0;exitDy=0;exitPerimeter=0;" parent="1" source="5g94-GaEwYD7WjOhBr3F-2" edge="1"><mxGeometry width="50" height="50" relative="1" as="geometry"><mxPoint x="200" y="350" as="sourcePoint"/><mxPoint x="580" y="890" as="targetPoint"/></mxGeometry></mxCell><mxCell id="5g94-GaEwYD7WjOhBr3F-15" value="" style="endArrow=none;html=1;entryX=1;entryY=1;entryDx=0;entryDy=0;entryPerimeter=0;" parent="1" target="5g94-GaEwYD7WjOhBr3F-2" edge="1"><mxGeometry width="50" height="50" relative="1" as="geometry"><mxPoint x="580" y="810" as="sourcePoint"/><mxPoint x="200" y="350" as="targetPoint"/></mxGeometry></mxCell><mxCell id="5g94-GaEwYD7WjOhBr3F-16" value="" style="endArrow=none;html=1;exitX=1;exitY=1;exitDx=0;exitDy=0;exitPerimeter=0;" parent="1" source="5g94-GaEwYD7WjOhBr3F-2" edge="1"><mxGeometry width="50" height="50" relative="1" as="geometry"><mxPoint x="120" y="570" as="sourcePoint"/><mxPoint x="580" y="980" as="targetPoint"/></mxGeometry></mxCell><mxCell id="5g94-GaEwYD7WjOhBr3F-17" value="Add agency" style="ellipse;whiteSpace=wrap;html=1;" parent="1" vertex="1"><mxGeometry x="560" y="60" width="120" height="60" as="geometry"/></mxCell><mxCell id="5g94-GaEwYD7WjOhBr3F-18" value="Edit agency" style="ellipse;whiteSpace=wrap;html=1;" parent="1" vertex="1"><mxGeometry x="560" y="150" width="120" height="60" as="geometry"/></mxCell><mxCell id="5g94-GaEwYD7WjOhBr3F-19" value="Remove agency" style="ellipse;whiteSpace=wrap;html=1;" parent="1" vertex="1"><mxGeometry x="560" y="240" width="120" height="60" as="geometry"/></mxCell><mxCell id="5g94-GaEwYD7WjOhBr3F-20" value="Add manager" style="ellipse;whiteSpace=wrap;html=1;" parent="1" vertex="1"><mxGeometry x="440" y="420" width="120" height="60" as="geometry"/></mxCell><mxCell id="5g94-GaEwYD7WjOhBr3F-21" value="Edit manager" style="ellipse;whiteSpace=wrap;html=1;" parent="1" vertex="1"><mxGeometry x="440" y="500" width="120" height="60" as="geometry"/></mxCell><mxCell id="5g94-GaEwYD7WjOhBr3F-22" value="Remove manager" style="ellipse;whiteSpace=wrap;html=1;" parent="1" vertex="1"><mxGeometry x="440" y="585" width="120" height="60" as="geometry"/></mxCell><mxCell id="5g94-GaEwYD7WjOhBr3F-23" value="Edit client" style="ellipse;whiteSpace=wrap;html=1;" parent="1" vertex="1"><mxGeometry x="310" y="860" width="120" height="60" as="geometry"/></mxCell><mxCell id="5g94-GaEwYD7WjOhBr3F-24" value="Remove client" style="ellipse;whiteSpace=wrap;html=1;" parent="1" vertex="1"><mxGeometry x="310" y="950" width="120" height="60" as="geometry"/></mxCell><mxCell id="5g94-GaEwYD7WjOhBr3F-26" value="" style="endArrow=none;html=1;" parent="1" edge="1"><mxGeometry width="50" height="50" relative="1" as="geometry"><mxPoint x="140" y="430" as="sourcePoint"/><mxPoint x="577" y="110" as="targetPoint"/></mxGeometry></mxCell><mxCell id="5g94-GaEwYD7WjOhBr3F-27" value="" style="endArrow=none;html=1;entryX=0;entryY=0.5;entryDx=0;entryDy=0;exitX=0.75;exitY=0.1;exitDx=0;exitDy=0;exitPerimeter=0;" parent="1" source="5g94-GaEwYD7WjOhBr3F-2" target="5g94-GaEwYD7WjOhBr3F-18" edge="1"><mxGeometry width="50" height="50" relative="1" as="geometry"><mxPoint x="200" y="350" as="sourcePoint"/><mxPoint x="530" y="420" as="targetPoint"/></mxGeometry></mxCell><mxCell id="5g94-GaEwYD7WjOhBr3F-28" value="" style="endArrow=none;html=1;entryX=0;entryY=0.5;entryDx=0;entryDy=0;exitX=0.75;exitY=0.1;exitDx=0;exitDy=0;exitPerimeter=0;" parent="1" source="5g94-GaEwYD7WjOhBr3F-2" target="5g94-GaEwYD7WjOhBr3F-19" edge="1"><mxGeometry width="50" height="50" relative="1" as="geometry"><mxPoint x="200" y="350" as="sourcePoint"/><mxPoint x="640" y="660" as="targetPoint"/></mxGeometry></mxCell><mxCell id="5g94-GaEwYD7WjOhBr3F-29" value="" style="endArrow=none;html=1;exitX=0;exitY=0.5;exitDx=0;exitDy=0;" parent="1" source="5g94-GaEwYD7WjOhBr3F-22" target="5g94-GaEwYD7WjOhBr3F-2" edge="1"><mxGeometry width="50" height="50" relative="1" as="geometry"><mxPoint x="150" y="640" as="sourcePoint"/><mxPoint x="200" y="350" as="targetPoint"/></mxGeometry></mxCell><mxCell id="5g94-GaEwYD7WjOhBr3F-30" value="" style="endArrow=none;html=1;entryX=0;entryY=0.5;entryDx=0;entryDy=0;" parent="1" source="5g94-GaEwYD7WjOhBr3F-2" target="5g94-GaEwYD7WjOhBr3F-20" edge="1"><mxGeometry width="50" height="50" relative="1" as="geometry"><mxPoint x="200" y="350" as="sourcePoint"/><mxPoint x="480" y="700" as="targetPoint"/></mxGeometry></mxCell><mxCell id="5g94-GaEwYD7WjOhBr3F-31" value="" style="endArrow=none;html=1;entryX=0;entryY=0.5;entryDx=0;entryDy=0;" parent="1" target="5g94-GaEwYD7WjOhBr3F-21" edge="1"><mxGeometry width="50" height="50" relative="1" as="geometry"><mxPoint x="150" y="480" as="sourcePoint"/><mxPoint x="540" y="850" as="targetPoint"/></mxGeometry></mxCell><mxCell id="5g94-GaEwYD7WjOhBr3F-32" value="" style="endArrow=none;html=1;entryX=0;entryY=0.5;entryDx=0;entryDy=0;exitX=1;exitY=1;exitDx=0;exitDy=0;exitPerimeter=0;" parent="1" source="5g94-GaEwYD7WjOhBr3F-2" target="5g94-GaEwYD7WjOhBr3F-23" edge="1"><mxGeometry width="50" height="50" relative="1" as="geometry"><mxPoint x="140" y="590" as="sourcePoint"/><mxPoint x="180" y="840" as="targetPoint"/></mxGeometry></mxCell><mxCell id="5g94-GaEwYD7WjOhBr3F-33" value="" style="endArrow=none;html=1;entryX=0;entryY=0.5;entryDx=0;entryDy=0;exitX=1;exitY=1;exitDx=0;exitDy=0;exitPerimeter=0;" parent="1" source="5g94-GaEwYD7WjOhBr3F-2" target="5g94-GaEwYD7WjOhBr3F-24" edge="1"><mxGeometry width="50" height="50" relative="1" as="geometry"><mxPoint x="110" y="590" as="sourcePoint"/><mxPoint x="240" y="820" as="targetPoint"/></mxGeometry></mxCell></root></mxGraphModel></diagram></mxfile>